<svg xmlns="http://www.w3.org/2000/svg" xmlns:xlink="http://www.w3.org/1999/xlink" width="1128" zoomAndPan="magnify" viewBox="0 0 846 143.249994" height="191" preserveAspectRatio="xMidYMid meet" version="1.0"><defs><clipPath id="530beddf58"><path d="M 488.1875 48 L 520.195312 48 L 520.195312 93.488281 L 488.1875 93.488281 Z M 488.1875 48 " clip-rule="nonzero"/></clipPath><clipPath id="944e3326b5"><path d="M 531.257812 47.847656 L 578.675781 47.847656 L 578.675781 93 L 531.257812 93 Z M 531.257812 47.847656 " clip-rule="nonzero"/></clipPath></defs><path fill="#a659c7" d="M 291.34375 52.117188 C 287.5 49.699219 282.097656 48.3125 276.519531 48.3125 L 269.113281 48.3125 C 268.257812 48.3125 267.566406 49.003906 267.566406 49.855469 L 267.566406 51.066406 C 267.566406 51.929688 268.269531 52.632812 269.136719 52.632812 L 275.855469 52.632812 C 281.394531 52.632812 286.175781 53.917969 289.3125 56.253906 C 293.894531 59.65625 296.316406 64.417969 296.316406 70.019531 C 296.316406 74.6875 294.585938 79.046875 291.453125 82.296875 C 288.089844 85.730469 283.042969 87.402344 276.035156 87.402344 L 269.136719 87.402344 C 268.269531 87.402344 267.566406 88.105469 267.566406 88.96875 L 267.566406 90.15625 C 267.566406 91.019531 268.269531 91.726562 269.136719 91.726562 L 276.339844 91.726562 C 284.070312 91.726562 290.394531 89.472656 294.628906 85.214844 C 298.871094 80.992188 301.121094 75.820312 301.121094 70.253906 C 301.121094 62.914062 297.375 55.972656 291.347656 52.125 Z M 291.34375 52.117188 " fill-opacity="1" fill-rule="nonzero"/><path fill="#a659c7" d="M 310.832031 48.3125 L 312.441406 48.3125 C 312.644531 48.3125 312.839844 48.351562 313.03125 48.429688 C 313.21875 48.507812 313.386719 48.621094 313.53125 48.761719 C 313.675781 48.90625 313.789062 49.078125 313.867188 49.265625 C 313.945312 49.453125 313.984375 49.652344 313.984375 49.855469 L 313.984375 90.175781 C 313.984375 90.378906 313.945312 90.578125 313.867188 90.765625 C 313.789062 90.957031 313.675781 91.121094 313.53125 91.269531 C 313.386719 91.414062 313.21875 91.523438 313.03125 91.601562 C 312.839844 91.683594 312.644531 91.71875 312.441406 91.71875 L 310.832031 91.71875 C 310.625 91.71875 310.429688 91.683594 310.238281 91.601562 C 310.050781 91.523438 309.882812 91.414062 309.738281 91.269531 C 309.59375 91.121094 309.480469 90.957031 309.402344 90.765625 C 309.324219 90.578125 309.285156 90.378906 309.285156 90.175781 L 309.285156 49.855469 C 309.285156 49.652344 309.324219 49.453125 309.402344 49.265625 C 309.480469 49.078125 309.59375 48.90625 309.738281 48.761719 C 309.882812 48.621094 310.050781 48.507812 310.238281 48.429688 C 310.429688 48.351562 310.625 48.3125 310.832031 48.3125 Z M 310.832031 48.3125 " fill-opacity="1" fill-rule="nonzero"/><path fill="#a659c7" d="M 361.175781 48.3125 L 359.140625 48.3125 C 358.515625 48.3125 357.957031 48.683594 357.71875 49.261719 L 343.144531 84.105469 C 343.050781 84.328125 342.851562 84.460938 342.613281 84.460938 C 342.371094 84.460938 342.171875 84.328125 342.078125 84.101562 L 327.5625 49.261719 C 327.324219 48.683594 326.761719 48.3125 326.132812 48.3125 L 323.976562 48.3125 C 323.460938 48.3125 322.972656 48.570312 322.6875 49.007812 C 322.402344 49.441406 322.347656 49.988281 322.554688 50.464844 L 339.742188 90.785156 C 339.988281 91.355469 340.546875 91.726562 341.164062 91.726562 L 343.867188 91.726562 C 344.488281 91.726562 345.042969 91.355469 345.289062 90.789062 L 362.59375 50.464844 C 362.800781 49.988281 362.753906 49.4375 362.464844 49.007812 C 362.179688 48.570312 361.695312 48.3125 361.175781 48.3125 Z M 361.175781 48.3125 " fill-opacity="1" fill-rule="nonzero"/><path fill="#a659c7" d="M 393.996094 48.3125 L 372.089844 48.3125 C 371.238281 48.3125 370.542969 49.003906 370.542969 49.855469 L 370.542969 90.175781 C 370.542969 91.027344 371.234375 91.71875 372.089844 91.71875 L 393.996094 91.71875 C 394.847656 91.71875 395.539062 91.027344 395.539062 90.175781 L 395.539062 88.9375 C 395.539062 88.089844 394.847656 87.394531 393.996094 87.394531 L 376.976562 87.394531 C 376.433594 87.394531 375.996094 86.957031 375.996094 86.414062 L 375.996094 73.148438 C 375.996094 72.609375 376.433594 72.167969 376.976562 72.167969 L 393.621094 72.167969 C 394.46875 72.167969 395.164062 71.476562 395.164062 70.625 L 395.164062 69.011719 C 395.164062 68.164062 394.472656 67.46875 393.621094 67.46875 L 376.976562 67.46875 C 376.433594 67.46875 375.996094 67.027344 375.996094 66.484375 L 375.996094 53.613281 C 375.996094 53.074219 376.433594 52.632812 376.976562 52.632812 L 393.996094 52.632812 C 394.847656 52.632812 395.539062 51.941406 395.539062 51.089844 L 395.539062 49.851562 C 395.539062 49.003906 394.847656 48.308594 393.996094 48.308594 Z M 393.996094 48.3125 " fill-opacity="1" fill-rule="nonzero"/><path fill="#a659c7" d="M 417.886719 75.5625 C 421.371094 75.003906 424.351562 73.449219 426.519531 71.0625 C 428.679688 68.679688 429.820312 65.699219 429.820312 62.429688 C 429.820312 58.566406 428.363281 55.074219 425.714844 52.59375 C 422.71875 49.792969 418.265625 48.3125 412.832031 48.3125 L 405.035156 48.3125 C 404.65625 48.3125 404.300781 48.457031 404.035156 48.730469 C 403.769531 49 403.621094 49.351562 403.621094 49.730469 L 403.621094 51.222656 C 403.628906 52 404.265625 52.632812 405.042969 52.632812 L 412.511719 52.632812 C 417.066406 52.632812 420.488281 53.769531 422.6875 56.011719 C 424.886719 58.253906 425.214844 60.957031 425.214844 62.371094 C 425.214844 68.304688 420.441406 71.988281 412.753906 71.988281 L 410.859375 71.988281 C 410.3125 71.988281 409.828125 72.292969 409.585938 72.78125 C 409.347656 73.269531 409.40625 73.84375 409.738281 74.269531 L 422.835938 91.171875 C 423.101562 91.511719 423.519531 91.71875 423.953125 91.71875 L 426.558594 91.71875 C 427.105469 91.71875 427.59375 91.417969 427.828125 90.925781 C 428.066406 90.429688 428.007812 89.859375 427.671875 89.429688 L 417.53125 76.484375 C 417.402344 76.324219 417.375 76.109375 417.449219 75.917969 C 417.523438 75.722656 417.6875 75.59375 417.894531 75.558594 Z M 417.886719 75.5625 " fill-opacity="1" fill-rule="nonzero"/><g clip-path="url(#530beddf58)"><path fill="#a659c7" d="M 518.363281 48.089844 L 516.445312 48.089844 C 515.511719 48.089844 514.75 48.847656 514.75 49.785156 L 514.75 76.535156 C 514.75 87.996094 506.65625 88.886719 504.175781 88.886719 C 497.550781 88.886719 493.597656 84.246094 493.597656 76.476562 L 493.597656 49.785156 C 493.597656 48.847656 492.839844 48.089844 491.902344 48.089844 L 489.988281 48.089844 C 489.050781 48.089844 488.289062 48.847656 488.289062 49.785156 L 488.289062 76.238281 C 488.289062 81.738281 489.871094 86.25 492.851562 89.285156 C 495.640625 92.117188 499.550781 93.617188 504.171875 93.617188 C 508.789062 93.617188 512.675781 92.101562 515.492188 89.230469 C 518.476562 86.1875 520.050781 81.738281 520.050781 76.355469 L 520.050781 49.785156 C 520.050781 48.847656 519.289062 48.089844 518.355469 48.089844 Z M 518.363281 48.089844 " fill-opacity="1" fill-rule="nonzero"/></g><path fill="#a659c7" d="M 473.863281 49.15625 C 473.597656 48.632812 473.070312 48.3125 472.488281 48.3125 L 470.558594 48.3125 C 470.070312 48.3125 469.609375 48.542969 469.316406 48.9375 L 439.601562 89.261719 C 439.253906 89.730469 439.203125 90.351562 439.464844 90.875 C 439.726562 91.398438 440.257812 91.71875 440.839844 91.71875 L 442.769531 91.71875 C 443.257812 91.71875 443.71875 91.488281 444.011719 91.09375 L 473.730469 50.769531 C 474.078125 50.296875 474.128906 49.679688 473.867188 49.15625 Z M 473.863281 49.15625 " fill-opacity="1" fill-rule="nonzero"/><path fill="#a659c7" d="M 465.328125 87.398438 L 473.648438 87.398438 C 473.75 87.398438 473.855469 87.410156 473.957031 87.429688 C 474.054688 87.449219 474.15625 87.480469 474.25 87.519531 C 474.34375 87.558594 474.4375 87.605469 474.523438 87.664062 C 474.605469 87.722656 474.6875 87.785156 474.757812 87.859375 C 474.832031 87.929688 474.898438 88.011719 474.953125 88.097656 C 475.011719 88.183594 475.0625 88.273438 475.097656 88.367188 C 475.140625 88.464844 475.167969 88.5625 475.1875 88.664062 C 475.207031 88.765625 475.21875 88.867188 475.21875 88.96875 L 475.21875 90.148438 C 475.21875 90.253906 475.207031 90.355469 475.1875 90.457031 C 475.167969 90.558594 475.140625 90.65625 475.097656 90.75 C 475.0625 90.847656 475.011719 90.9375 474.953125 91.023438 C 474.898438 91.109375 474.832031 91.1875 474.757812 91.261719 C 474.6875 91.332031 474.605469 91.398438 474.523438 91.457031 C 474.4375 91.511719 474.34375 91.5625 474.25 91.601562 C 474.15625 91.640625 474.054688 91.671875 473.957031 91.691406 C 473.855469 91.710938 473.75 91.71875 473.648438 91.71875 L 465.328125 91.71875 C 465.222656 91.71875 465.121094 91.710938 465.019531 91.691406 C 464.917969 91.671875 464.820312 91.640625 464.726562 91.601562 C 464.628906 91.5625 464.539062 91.511719 464.453125 91.457031 C 464.367188 91.398438 464.289062 91.332031 464.21875 91.261719 C 464.144531 91.1875 464.078125 91.109375 464.019531 91.023438 C 463.964844 90.9375 463.917969 90.847656 463.875 90.75 C 463.835938 90.65625 463.804688 90.558594 463.785156 90.457031 C 463.765625 90.355469 463.753906 90.253906 463.753906 90.148438 L 463.753906 88.96875 C 463.753906 88.867188 463.765625 88.765625 463.785156 88.664062 C 463.804688 88.5625 463.835938 88.464844 463.875 88.367188 C 463.917969 88.273438 463.964844 88.183594 464.019531 88.097656 C 464.078125 88.011719 464.144531 87.929688 464.21875 87.859375 C 464.289062 87.785156 464.367188 87.722656 464.453125 87.664062 C 464.539062 87.605469 464.628906 87.558594 464.726562 87.519531 C 464.820312 87.480469 464.917969 87.449219 465.019531 87.429688 C 465.121094 87.410156 465.222656 87.398438 465.328125 87.398438 Z M 465.328125 87.398438 " fill-opacity="1" fill-rule="nonzero"/><path fill="#a659c7" d="M 439.847656 48.3125 L 448.015625 48.3125 C 448.125 48.3125 448.230469 48.320312 448.335938 48.34375 C 448.445312 48.363281 448.546875 48.394531 448.644531 48.4375 C 448.746094 48.476562 448.839844 48.527344 448.929688 48.589844 C 449.019531 48.648438 449.105469 48.714844 449.179688 48.792969 C 449.257812 48.871094 449.324219 48.953125 449.386719 49.042969 C 449.445312 49.132812 449.496094 49.226562 449.535156 49.328125 C 449.578125 49.425781 449.609375 49.53125 449.628906 49.636719 C 449.652344 49.742188 449.664062 49.847656 449.664062 49.957031 L 449.664062 50.988281 C 449.664062 51.09375 449.652344 51.203125 449.628906 51.308594 C 449.609375 51.414062 449.578125 51.515625 449.535156 51.617188 C 449.496094 51.71875 449.445312 51.8125 449.386719 51.902344 C 449.324219 51.992188 449.257812 52.074219 449.179688 52.152344 C 449.105469 52.226562 449.019531 52.296875 448.929688 52.355469 C 448.839844 52.417969 448.746094 52.464844 448.644531 52.507812 C 448.546875 52.550781 448.445312 52.582031 448.335938 52.601562 C 448.230469 52.625 448.125 52.632812 448.015625 52.632812 L 439.847656 52.632812 C 439.738281 52.632812 439.628906 52.625 439.523438 52.601562 C 439.417969 52.582031 439.316406 52.550781 439.214844 52.507812 C 439.117188 52.464844 439.019531 52.417969 438.929688 52.355469 C 438.839844 52.296875 438.757812 52.226562 438.683594 52.152344 C 438.605469 52.074219 438.535156 51.992188 438.476562 51.902344 C 438.417969 51.8125 438.367188 51.71875 438.324219 51.617188 C 438.285156 51.515625 438.25 51.414062 438.230469 51.308594 C 438.210938 51.203125 438.199219 51.09375 438.199219 50.988281 L 438.199219 49.957031 C 438.199219 49.847656 438.210938 49.742188 438.230469 49.636719 C 438.25 49.53125 438.285156 49.425781 438.324219 49.328125 C 438.367188 49.226562 438.417969 49.132812 438.476562 49.042969 C 438.535156 48.953125 438.605469 48.871094 438.683594 48.792969 C 438.757812 48.714844 438.839844 48.648438 438.929688 48.589844 C 439.019531 48.527344 439.117188 48.476562 439.214844 48.4375 C 439.316406 48.394531 439.417969 48.363281 439.523438 48.34375 C 439.628906 48.320312 439.738281 48.3125 439.847656 48.3125 Z M 439.847656 48.3125 " fill-opacity="1" fill-rule="nonzero"/><g clip-path="url(#944e3326b5)"><path fill="#a659c7" d="M 576.890625 47.847656 L 571.925781 47.847656 C 571.328125 47.847656 570.785156 48.214844 570.542969 48.773438 L 555.695312 83.394531 C 555.566406 83.683594 555.3125 83.863281 555.003906 83.863281 C 554.695312 83.863281 554.4375 83.683594 554.3125 83.394531 L 539.464844 48.773438 C 539.226562 48.214844 538.683594 47.847656 538.082031 47.847656 L 533.117188 47.847656 C 532.285156 47.847656 531.605469 48.542969 531.605469 49.398438 L 531.605469 91.386719 C 531.605469 92.238281 532.285156 92.933594 533.117188 92.933594 L 535.273438 92.933594 C 535.671875 92.933594 536.046875 92.777344 536.335938 92.492188 C 536.628906 92.195312 536.789062 91.796875 536.785156 91.375 L 536.46875 54.589844 C 536.46875 54.511719 536.492188 54.441406 536.546875 54.390625 C 536.597656 54.339844 536.660156 54.3125 536.722656 54.3125 C 536.769531 54.3125 536.816406 54.328125 536.859375 54.355469 C 536.902344 54.382812 536.9375 54.425781 536.953125 54.476562 L 552.507812 91.992188 C 552.742188 92.5625 553.289062 92.933594 553.898438 92.933594 L 556.105469 92.933594 C 556.710938 92.933594 557.261719 92.566406 557.496094 91.992188 L 573.054688 54.476562 C 573.074219 54.425781 573.105469 54.382812 573.152344 54.355469 C 573.191406 54.328125 573.238281 54.3125 573.289062 54.3125 C 573.351562 54.3125 573.414062 54.339844 573.460938 54.390625 C 573.511719 54.441406 573.542969 54.511719 573.542969 54.589844 L 573.222656 91.375 C 573.222656 91.800781 573.382812 92.195312 573.675781 92.492188 C 573.960938 92.777344 574.335938 92.933594 574.734375 92.933594 L 576.890625 92.933594 C 577.726562 92.933594 578.402344 92.238281 578.402344 91.386719 L 578.402344 49.398438 C 578.402344 48.542969 577.726562 47.847656 576.890625 47.847656 Z M 576.890625 47.847656 " fill-opacity="1" fill-rule="nonzero"/></g></svg>